<?xml version="1.0" encoding="utf-8"?>
<!-- Generator: Adobe Illustrator 22.0.1, SVG Export Plug-In . SVG Version: 6.00 Build 0)  -->
<svg version="1.1" id="Your_Design" xmlns="http://www.w3.org/2000/svg" xmlns:xlink="http://www.w3.org/1999/xlink" x="0px"
	 y="0px" viewBox="0 0 75.8 73.2" style="enable-background:new 0 0 75.8 73.2;" xml:space="preserve">
<style type="text/css">
	.st0{fill:#005685;}
	.st1{fill:#01568F;}
</style>
<g>
	<g>
		<rect x="32.3" y="35.6" transform="matrix(0.8096 -0.587 0.587 0.8096 -16.7183 26.4374)" class="st0" width="0.3" height="6.8"/>
		<rect x="36.2" y="35.6" transform="matrix(0.8096 -0.587 0.587 0.8096 -15.9601 28.775)" class="st0" width="0.3" height="6.8"/>
		<rect x="40.2" y="35.6" transform="matrix(0.8096 -0.587 0.587 0.8096 -15.2019 31.1125)" class="st0" width="0.3" height="6.8"/>
		<rect x="44.2" y="35.6" transform="matrix(0.8096 -0.587 0.587 0.8096 -14.4437 33.4501)" class="st0" width="0.3" height="6.8"/>
		<rect x="48.2" y="35.6" transform="matrix(0.8096 -0.587 0.587 0.8096 -13.6855 35.7876)" class="st0" width="0.3" height="6.8"/>
		<rect x="52.2" y="35.6" transform="matrix(0.8096 -0.587 0.587 0.8096 -12.9142 38.1655)" class="st0" width="0.3" height="6.8"/>
		<polyline class="st0" points="56.4,39.2 54.3,36.3 54.5,36.2 56.6,39 		"/>
		<rect x="30.4" y="39.4" class="st0" width="26" height="0.3"/>
		<path class="st1" d="M36.5,56.4c-1.8,0-3.5-0.3-5.2-0.8c-3.2-1-6.1-2.9-8.7-5.8C21,48,20.5,47,20.4,46.9l-0.1-0.2l2.1-1.6
			c0.9-0.7,2.2-0.8,3.2-0.1l1,0.6c0.8,0.5,1.8,0.5,2.6-0.1l0.6-0.5c1-0.7,2.3-0.7,3.3,0l0.8,0.5c0.8,0.5,1.8,0.5,2.6,0l1-0.6
			c0.9-0.6,2.2-0.6,3.1,0l1,0.6c0.8,0.5,1.8,0.5,2.6,0l0.8-0.5c1-0.7,2.3-0.7,3.3,0l0.6,0.5c0.8,0.5,1.8,0.6,2.6,0.1l1-0.6
			c1-0.7,2.3,0.3,2.4,0.3l0.2,0.2l-2.7,4.3c-0.5,1-5.8,5.2-12.4,6.3C38.7,56.3,37.6,56.4,36.5,56.4z M21,46.9c0.2,0.4,0.8,1.3,2,2.6
			c2.5,2.8,5.3,4.6,8.4,5.6c2.6,0.8,5.3,1,8.2,0.5c6.6-1.1,11.7-5.3,12-6l0,0l0,0l2.5-3.9c-0.3-0.2-1-0.5-1.5-0.1l-1,0.6
			c-1,0.6-2.2,0.6-3.2-0.1l-0.6-0.5C47,45,46,45,45.2,45.5L44.4,46c-1,0.7-2.2,0.7-3.2,0l-1-0.6c-0.8-0.5-1.8-0.5-2.5,0l-1,0.6
			c-1,0.6-2.2,0.6-3.2,0l-0.8-0.5C32,45,31,45,30.2,45.5L29.6,46c-1,0.7-2.2,0.7-3.2,0.1l-1-0.6c-0.8-0.5-1.8-0.5-2.6,0.1L21,46.9z"
			/>
		<path class="st1" d="M52,48.4l-1.9,1.1c-1,0.6-2.2,0.6-3.2-0.1l-0.6-0.5c-0.8-0.6-1.8-0.6-2.6,0L43,49.4c-0.5,0.3-1.1,0.5-1.6,0.5
			c-0.5,0-1.1-0.2-1.6-0.5l-1-0.6c-0.8-0.5-1.8-0.5-2.5,0l-1,0.6c-1,0.6-2.2,0.6-3.2,0l-0.8-0.5c-0.8-0.5-1.8-0.5-2.6,0l-0.6,0.5
			c-1,0.7-2.2,0.7-3.2,0.1l-1.8-0.8l0.3-0.5l1.8,0.8c0.8,0.5,1.8,0.5,2.6-0.1l0.6-0.5c1-0.7,2.3-0.7,3.3,0l0.8,0.5
			c0.8,0.5,1.8,0.5,2.6,0l1-0.6c0.9-0.6,2.2-0.6,3.1,0l1,0.6c0.8,0.5,1.8,0.5,2.6,0l0.8-0.5c1-0.7,2.3-0.7,3.3,0l0.6,0.5
			c0.8,0.5,1.8,0.6,2.6,0.1l2.2-1.1"/>
		<path class="st1" d="M47,52.9l-0.6-0.5c-0.8-0.6-1.8-0.6-2.6,0L43,52.9c-0.5,0.3-1.1,0.5-1.6,0.5c-0.5,0-1.1-0.2-1.6-0.5l-1-0.6
			c-0.8-0.5-1.8-0.5-2.5,0l-1,0.6c-1,0.6-2.2,0.6-3.2,0l-0.8-0.5c-0.8-0.5-1.8-0.5-2.6,0l-0.6,0.5l-0.3-0.5l0.6-0.5
			c1-0.7,2.3-0.7,3.3,0l0.8,0.5c0.8,0.5,1.8,0.5,2.6,0l1-0.6c0.9-0.6,2.2-0.6,3.1,0l1,0.6c0.8,0.5,1.8,0.5,2.6,0l0.8-0.5
			c1-0.7,2.3-0.7,3.3,0l0.6,0.5"/>
		<path class="st0" d="M37.6,56.8c-5.4,0-10.5-2.1-14.3-5.9c-3.8-3.8-5.9-8.9-5.9-14.3s2.1-10.5,5.9-14.3c3.8-3.8,8.9-5.9,14.3-5.9
			s10.5,2.1,14.3,5.9c3.8,3.8,5.9,8.9,5.9,14.3s-2.1,10.5-5.9,14.3C48.1,54.7,43,56.8,37.6,56.8z M37.6,18.5
			c-4.9,0-9.4,1.9-12.8,5.3c-3.4,3.4-5.3,8-5.3,12.8s1.9,9.4,5.3,12.8c3.4,3.4,8,5.3,12.8,5.3s9.4-1.9,12.8-5.3
			c3.4-3.4,5.3-8,5.3-12.8s-1.9-9.4-5.3-12.8C47,20.3,42.4,18.5,37.6,18.5z"/>
		<g transform="translate(0.000000,4096.000000) scale(0.100000,-0.100000)">
			<g>
				<path class="st1" d="M326.9,40725.6c-6.8-0.8-12.7-5.3-16.8-12.9c-0.5-0.9-1.4-2.8-1.6-3.2c-0.1-0.3-0.1-0.2,0.5,0.7
					c2.7,4.6,6.3,8.1,10.4,10.1c2.5,1.2,4.8,1.8,7.6,1.8c2.1,0,3.7-0.3,5.6-1c5.4-1.9,10-6.4,13.4-13c0.6-1.2,1.5-3.2,2-4.7
					c0.2-0.7,0.4-1.2,0.4-1.2c0,0,0.1,0.4,0.3,0.8c0.5,1.6,1.6,4.1,2.5,5.7c2,3.7,4.5,6.9,7.3,9.1c6.1,4.9,13.5,5.6,20.2,1.9
					c0.9-0.5,2.8-1.8,3.7-2.6c2-1.8,4-4.2,5.4-6.6c0.3-0.5,0.6-0.9,0.6-1.1c0.2-0.4-0.5,1.2-0.9,2.1c-1.1,2.1-2.5,4.3-3.8,5.9
					c-3.5,4.4-8,7.2-12.7,8c-1.1,0.2-4,0.2-5,0c-3.6-0.6-6.8-2.1-9.8-4.7c-2.8-2.4-5.5-6.1-7.3-9.8c-0.2-0.3-0.3-0.6-0.3-0.6
					c0,0-0.2,0.4-0.5,0.9c-2.2,4.7-5.6,8.8-9.3,11.2c-2.3,1.6-4.8,2.6-7.4,3C330.6,40725.5,327.6,40725.6,326.9,40725.6z"/>
				<path class="st1" d="M348.5,40699.6c-1.8,0-2.3,1.4-2.9,3c-0.5,1.4-1.2,3.2-1.8,4.4c-3.1,6-7.2,10-12,11.7
					c-1.7,0.6-2.9,0.8-4.8,0.8c-2.4,0-4.4-0.4-6.5-1.5c-3.6-1.8-6.9-5-9.3-9.1l0-0.1c-0.5-0.8-1.6-2.8-3.7-1.8
					c-1,0.5-1.9,1.7-1.3,3.3l0,0.1c0.2,0.7,1.3,2.7,1.7,3.6c4.6,8.3,11.2,13.4,18.8,14.2h0c1,0.1,4.2,0,5.2-0.2
					c3-0.5,5.8-1.6,8.4-3.4c3.1-2.1,6-5.2,8.3-8.9c1.7,2.7,3.8,5.2,6,7.1c3.4,2.9,6.9,4.6,11,5.3c1.3,0.2,4.5,0.2,5.9,0
					c5.4-0.9,10.3-4,14.3-8.9c1.4-1.8,3-4.2,4.1-6.4c1.1-2.1,2.2-4.3-0.1-5.6c-1.1-0.6-2.6-0.4-3.5,1c-0.1,0.1-0.4,0.6-0.6,1.1
					c-1.3,2.2-3,4.4-4.9,6c-0.8,0.7-2.4,1.9-3.2,2.3c-5.8,3.3-12,2.7-17.4-1.7c-2.5-2-4.8-4.9-6.6-8.3c-0.8-1.5-1.8-3.8-2.3-5.3
					C350.9,40701.2,350.4,40699.6,348.5,40699.6z M390.6,40710.7C390.6,40710.7,390.6,40710.7,390.6,40710.7
					C390.6,40710.7,390.6,40710.7,390.6,40710.7z"/>
			</g>
		</g>
		<g transform="translate(0.000000,4096.000000) scale(0.100000,-0.100000)">
			<g>
				<path class="st1" d="M403,40678.2c-3.1-0.3-5.7-2.4-7.6-5.8c-0.2-0.4-0.6-1.3-0.7-1.5c0-0.1,0-0.1,0.2,0.3
					c1.2,2.1,2.9,3.7,4.7,4.6c1.1,0.6,2.2,0.8,3.5,0.8c1,0,1.7-0.1,2.6-0.4c2.5-0.9,4.5-2.9,6.1-5.9c0.3-0.6,0.7-1.5,0.9-2.1
					c0.1-0.3,0.2-0.6,0.2-0.6c0,0,0.1,0.2,0.1,0.4c0.2,0.7,0.7,1.9,1.1,2.6c0.9,1.7,2,3.1,3.3,4.1c2.8,2.2,6.1,2.6,9.2,0.9
					c0.4-0.2,1.2-0.8,1.7-1.2c0.9-0.8,1.8-1.9,2.4-3c0.1-0.2,0.2-0.4,0.3-0.5c0.1-0.2-0.2,0.5-0.4,1c-0.5,0.9-1.1,2-1.7,2.7
					c-1.6,2-3.6,3.3-5.8,3.6c-0.5,0.1-1.8,0.1-2.3,0c-1.7-0.3-3.1-1-4.4-2.1c-1.3-1.1-2.5-2.8-3.3-4.5c-0.1-0.2-0.1-0.3-0.1-0.3
					c0,0-0.1,0.2-0.2,0.4c-1,2.1-2.5,4-4.2,5.1c-1.1,0.7-2.2,1.2-3.4,1.4C404.7,40678.2,403.3,40678.2,403,40678.2z"/>
				<path class="st1" d="M412.8,40665.9c-1.2,0-1.5,1-1.8,1.7c-0.2,0.6-0.5,1.4-0.8,1.9c-1.3,2.6-3.1,4.3-5.1,5.1
					c-0.7,0.2-1.2,0.3-2,0.3c0,0,0,0,0,0c-1,0-1.8-0.2-2.7-0.6c-1.5-0.8-3-2.1-4-3.9c-0.8-1.4-1.8-1.4-2.4-1.1l-1.4,0.6l0.5,1.5
					c0.1,0.4,0.6,1.3,0.8,1.7c2.1,3.9,5.3,6.3,8.9,6.7h0c0.5,0.1,2,0,2.5-0.1c1.4-0.2,2.7-0.8,4-1.6c1.3-0.9,2.5-2.1,3.5-3.5
					c0.7,1,1.5,1.9,2.4,2.6c1.6,1.4,3.3,2.2,5.3,2.5c0.6,0.1,2.2,0.1,2.8,0c2.6-0.4,4.9-1.9,6.8-4.2c0.7-0.8,1.4-2,1.9-3
					c0.5-0.9,1.2-2.4-0.2-3.2l-1.4-0.8l-0.9,1.4c0,0-0.2,0.3-0.3,0.5c-0.6,1-1.3,1.9-2.1,2.6c-0.3,0.3-1.1,0.8-1.3,1
					c-2.5,1.4-5,1.1-7.3-0.7c-1.1-0.9-2.1-2.1-2.9-3.6c-0.3-0.6-0.8-1.7-1-2.3C414.3,40667,414,40665.9,412.8,40665.9z"/>
			</g>
		</g>
		<path class="st0" d="M28.2,34.7v1.5H30v9.1l0.1-0.1c0.2-0.2,0.5-0.3,0.8-0.4v-8.7H34v9.7c0.1,0.1,0.3,0.1,0.4,0.2h0.4v-9.9h3.1V45
			c0.3-0.1,0.6-0.2,0.9-0.2v-8.5h3.1v9.9c0,0,0,0,0.1,0h0.8v-9.9h3.1v8.7c0.3-0.1,0.6-0.1,0.9,0v-8.6h3.1v9.9h0.9v-9.9h3.1v8.9
			c0.4,0.1,0.6,0.3,0.6,0.3l-0.4,0.6h0.6v-9.9h2.5v-1.5H28.2z"/>
	</g>
</g>
</svg>
